<svg xmlns="http://www.w3.org/2000/svg" width="512" height="512" viewBox="0 0 512 512">
  <defs>
    <style>
      .cls-1 {
        fill: #fff;
      }

      .cls-2 {
        fill: #121212;
      }

      .cls-2, .cls-3 {
        fill-rule: evenodd;
      }

      .cls-3 {
        fill: #1704cd;
      }
    </style>
  </defs>
  <circle class="cls-1" cx="256" cy="256" r="252"/>
  <path class="cls-2" d="M259.582,139.936S173.4,90.058,99.308,163.387c-0.095.508-67.49,59.7-22.192,156.756,0.777,0.382,64.184,110.366,182.466,51.841,0.038,0.31-65.4,63.355-162.431,21.908C97.123,393.56,16.28,356.236,9.616,268.3c-0.291-.035-9.456-74.28,54.247-128.059C63.959,139.768,154.437,59.125,259.582,139.936Z"/>
  <path id="Shape_2_copy" data-name="Shape 2 copy" class="cls-3" d="M112.87,352.812s33.288,20.943,76.746,12.315c0.089,0.144,37.4-6.584,64.11-39.1,0.1-.091,47.158.308,47.158,0.308S281.967,359.342,237.7,375.6C237.6,375.636,168.213,401.451,112.87,352.812Z"/>
  <path class="cls-3" d="M207.8,205.971l-16.952,25.92H127.664s-6.38,1.064-6.164,6.788a7.163,7.163,0,0,0,5.24,6.789c0.172,0.337,53.63,0,53.63,0s27.7-.25,29.589,23.452c0.087,0.293,6.266,35.585-29.9,37.646,0.008,0.06-86.61.617-86.61,0.617L110.4,281.571l68.117-.925s5.766-.029,5.856-8.332c-0.111.3-.763-5.623-8.63-5.863,0.126-.039-51.165,0-51.165,0s-24.52.536-29.281-23.76c0.036-.088-6.352-36.374,34.213-37.338C129.91,205.39,207.8,205.971,207.8,205.971Z"/>
  <path id="Shape_3_copy" data-name="Shape 3 copy" class="cls-2" d="M334.03,205.971L317.1,231.891H253.992s-6.373,1.064-6.157,6.788a7.166,7.166,0,0,0,5.233,6.789c0.173,0.337,53.564,0,53.564,0s27.669-.25,29.553,23.452c0.087,0.293,6.258,35.585-29.86,37.646,0.008,0.06-86.5.617-86.5,0.617l16.931-25.612,68.032-.925s5.76-.029,5.849-8.332c-0.11.3-.762-5.623-8.619-5.863,0.126-.039-51.1,0-51.1,0s-24.491.536-29.245-23.76c0.036-.088-6.344-36.374,34.17-37.338C256.235,205.39,334.03,205.971,334.03,205.971Z"/>
  <path class="cls-2" d="M450.37,238.062l-20.959-4.011s-15.695-27.585-44.384-12.96c0.11,0.1-22.056,9.784-17.568,37.954,0.091,0,8.491,26.579,32.979,27.155,0.087-.084,19.021-0.805,23.733-3.086,0.316,0.141,45.969-14.784,55.788-10.183-0.074.2,17.379-.687,24.041,28.7,0.067,0.113-14.9-19.962-35.445-13.886-0.321.353-13.112,2.755-37.6,9.257a119.1,119.1,0,0,1-35.137,5.863c0.094-.021-48.2-3.754-47.466-56.469,0.076-.114,2.3-39.2,44.384-47.829C392.831,198.521,436.96,192.944,450.37,238.062Z"/>
  <path class="cls-3" d="M388.418,272.092s13.447,10.452,36.37,4.937c0.207,0.077,24.041-6.48,24.041-6.48s23.718-8.148,35.753-1.852a30.5,30.5,0,0,1,12.021,7.715c-0.11-.052-3.183-17.1-22.5-18.206-0.077-.114-7.394-1.3-25.582,3.7-0.066.16-29.379,8.408-34.521,9.565C413.948,271.513,396.238,274.328,388.418,272.092Z"/>
  <path class="cls-3" d="M112.87,159.684s33.288-20.989,76.746-12.343c0.089-.143,37.4,6.6,64.11,39.189,0.1,0.092,47.158-.308,47.158-0.308S281.967,153.14,237.7,136.85C237.6,136.809,168.213,110.937,112.87,159.684Z"/>
</svg>
