<svg xmlns="http://www.w3.org/2000/svg" width="512" height="512" viewBox="0 0 512 512">
  <defs>
    <style>
      .cls-1 {
        fill: #121212;
      }

      .cls-1, .cls-2 {
        fill-rule: evenodd;
      }

      .cls-2 {
        fill: #1704cd;
      }
    </style>
  </defs>
  <path class="cls-1" d="M260.582,138.908S174.4,89.025,100.308,162.362c-0.1.508-67.489,59.7-22.192,156.772,0.777,0.382,64.184,110.377,182.466,51.846,0.038,0.31-65.4,63.362-162.431,21.911-0.028-.332-80.871-37.66-87.534-125.6C10.325,267.254,1.161,193,64.863,139.217,64.959,138.74,155.437,58.089,260.582,138.908Z"/>
  <path class="cls-2" d="M113.87,158.659s33.288-20.992,76.746-12.344c0.089-.144,37.4,6.6,64.11,39.193,0.1,0.091,47.158-.309,47.158-0.309s-18.917-33.085-63.185-49.377C238.6,135.781,169.213,109.907,113.87,158.659Z"/>
  <path id="Shape_2_copy" data-name="Shape 2 copy" class="cls-2" d="M113.87,351.806s33.288,20.946,76.746,12.317c0.089,0.143,37.4-6.585,64.11-39.106,0.1-.092,47.158.308,47.158,0.308s-18.917,33.012-63.185,49.267C238.6,374.633,169.213,400.45,113.87,351.806Z"/>
  <path class="cls-2" d="M208.8,204.95l-16.952,25.923H128.664s-6.38,1.064-6.164,6.789a7.163,7.163,0,0,0,5.24,6.789c0.172,0.337,53.63,0,53.63,0s27.7-.249,29.589,23.454c0.087,0.294,6.266,35.589-29.9,37.65,0.008,0.061-86.61.618-86.61,0.618L111.4,280.558l68.117-.925s5.766-.029,5.856-8.333c-0.111.3-.763-5.624-8.63-5.863,0.126-.04-51.165,0-51.165,0s-24.52.536-29.281-23.763c0.036-.088-6.352-36.378,34.213-37.341C130.91,204.369,208.8,204.95,208.8,204.95Z"/>
  <path id="Shape_3_copy" data-name="Shape 3 copy" class="cls-1" d="M335.03,204.95L318.1,230.873H254.992s-6.373,1.064-6.157,6.789a7.166,7.166,0,0,0,5.233,6.789c0.173,0.337,53.564,0,53.564,0S335.3,244.2,337.185,267.9c0.087,0.294,6.258,35.589-29.86,37.65,0.008,0.061-86.5.618-86.5,0.618l16.931-25.615,68.032-.925s5.76-.029,5.849-8.333c-0.11.3-.762-5.624-8.619-5.863,0.126-.04-51.1,0-51.1,0s-24.491.536-29.245-23.763c0.036-.088-6.344-36.378,34.17-37.341C257.235,204.369,335.03,204.95,335.03,204.95Z"/>
  <path class="cls-1" d="M451.37,237.045l-20.959-4.012s-15.695-27.588-44.384-12.961c0.11,0.1-22.056,9.784-17.568,37.958,0.091,0,8.491,26.581,32.979,27.157,0.087-.084,19.021-0.805,23.733-3.086,0.316,0.141,45.969-14.785,55.788-10.184-0.074.2,17.379-.687,24.041,28.7,0.067,0.113-14.9-19.964-35.445-13.888-0.321.354-13.112,2.755-37.6,9.259a119.06,119.06,0,0,1-35.137,5.863c0.094-.021-48.2-3.755-47.466-56.475,0.076-.114,2.3-39.206,44.384-47.834C393.831,197.5,437.96,191.922,451.37,237.045Z"/>
  <path class="cls-2" d="M389.418,274.078s13.447,10.453,36.37,4.937c0.207,0.077,24.041-6.48,24.041-6.48s23.718-8.148,35.753-1.852A30.486,30.486,0,0,1,497.6,278.4c-0.11-.052-3.183-17.1-22.5-18.208-0.077-.113-7.394-1.3-25.582,3.7-0.066.16-29.379,8.409-34.521,9.566C414.948,273.5,397.238,276.315,389.418,274.078Z"/>
</svg>
